<svg width="256" height="256" viewBox="0 0 80 80" fill="none" xmlns="http://www.w3.org/2000/svg">
  <g transform="translate(8 8) scale(0.8)">
    <path
      d="M64 48H56V32H64C72.836 32 80 24.836 80 16C80 7.164 72.836 0 64 0C55.163 0 48 7.164 48 16V24H32V16C32 7.164 24.836 0 16 0C7.164 0 0 7.164 0 16C0 24.836 7.164 32 16 32H24V48H16C7.164 48 0 55.164 0 64C0 72.836 7.164 80 16 80C24.836 80 32 72.836 32 64V56H48V63.98L47.999 64C47.999 72.836 55.163 80 63.999 80C72.835 80 79.999 72.836 79.999 64C79.999 55.164 72.836 48.002 64 48ZM64 8C68.418 8 72 11.582 72 16C72 20.418 68.418 24 64 24H56V16C56 11.582 59.582 8 64 8ZM8 16C8 11.582 11.582 8 16 8C20.418 8 24 11.582 24 16V24H16C11.582 24 8 20.417 8 16ZM16 72C11.582 72 8 68.418 8 64C8 59.582 11.582 56 16 56H24V64C24 68.418 20.418 72 16 72ZM32 48V32H48V48H32ZM64 72C59.582 72 56 68.418 56 64V56H63.999C68.417 56 71.999 59.582 71.999 64C71.999 68.418 68.417 72 64 72Z"
      fill="white"
    />
  </g>
</svg>
